<svg xmlns="http://www.w3.org/2000/svg" width="366" height="174.9846" viewBox="0 0 366 175" fill="#000000">
                                    <g id="ARDA_Logo_EN_Cur" data-name="ARDA Logo EN Cur" transform="translate(-641 -2412)">
                                        <rect id="Прямоугольник_11589" data-name="Прямоугольник 11589" width="366" height="175" transform="translate(641 2412)"></rect>
                                        <path id="Контур_63987" data-name="logo__title" d="M283.94,46.123l13.169,37.183H270.965ZM307.567,111h19.173L283.94,1,241.335,111H260.7l4.454-12.394h37.764ZM189.239,93.57V21.528s44.349-6.778,44.349,36.021C233.588,99.768,189.239,93.57,189.239,93.57ZM171.229,4.1V111h18.011c26.532,0,62.359-7.746,62.359-53.451C251.6,10.1,215.19,4.1,189.239,4.1ZM111.194,21.915h14.331s17.817,0,17.817,13.363c0,10.458-10.845,12.782-15.493,13.363ZM166.775,111,137.725,64.521c10.264-2.9,23.433-10.264,23.433-29.243,0-31.18-35.634-31.18-35.634-31.18H89.891V21.915l16.849,26.725H89.891V111h17.817V66.458h10.264L145.859,111ZM43.606,46.123,56.581,83.306H30.63ZM67.039,111H86.4L43.606,1,1,111H20.173L24.82,98.606h37.57Z" transform="translate(660.243 2445.105)" fill-rule="evenodd" stroke="#ffffff"></path>
                                        <path id="Контур_64017" data-name="logo__slogan" d="M6.583-2.317H2.728L1.921,0H.123l3.76-9.953H5.435L9.2,0H7.4ZM3.213-3.712H6.1L4.655-7.841Zm12.852,1.7a.753.753,0,0,0-.366-.677,3.89,3.89,0,0,0-1.213-.41,6.238,6.238,0,0,1-1.415-.451,1.889,1.889,0,0,1-1.244-1.743,1.969,1.969,0,0,1,.807-1.6,3.189,3.189,0,0,1,2.051-.643,3.318,3.318,0,0,1,2.143.656,2.082,2.082,0,0,1,.817,1.7H15.982a1.024,1.024,0,0,0-.355-.8,1.362,1.362,0,0,0-.943-.318,1.472,1.472,0,0,0-.892.253.8.8,0,0,0-.345.677.673.673,0,0,0,.321.595,4.418,4.418,0,0,0,1.3.427,6.148,6.148,0,0,1,1.535.513,2.173,2.173,0,0,1,.827.714A1.822,1.822,0,0,1,17.7-2.1a1.927,1.927,0,0,1-.827,1.617A3.527,3.527,0,0,1,14.7.137a3.825,3.825,0,0,1-1.62-.328,2.666,2.666,0,0,1-1.107-.9,2.136,2.136,0,0,1-.4-1.237h1.613a1.17,1.17,0,0,0,.444.906,1.727,1.727,0,0,0,1.087.318,1.68,1.68,0,0,0,1-.25A.772.772,0,0,0,16.064-2.01Zm8.976,0a.753.753,0,0,0-.366-.677,3.89,3.89,0,0,0-1.213-.41,6.238,6.238,0,0,1-1.415-.451A1.889,1.889,0,0,1,20.8-5.291a1.969,1.969,0,0,1,.807-1.6,3.189,3.189,0,0,1,2.051-.643,3.318,3.318,0,0,1,2.143.656,2.082,2.082,0,0,1,.817,1.7H24.958a1.024,1.024,0,0,0-.355-.8,1.362,1.362,0,0,0-.943-.318,1.472,1.472,0,0,0-.892.253.8.8,0,0,0-.345.677.673.673,0,0,0,.321.595,4.418,4.418,0,0,0,1.3.427,6.148,6.148,0,0,1,1.535.513,2.173,2.173,0,0,1,.827.714,1.822,1.822,0,0,1,.27,1.012,1.927,1.927,0,0,1-.827,1.617A3.527,3.527,0,0,1,23.68.137a3.825,3.825,0,0,1-1.62-.328,2.666,2.666,0,0,1-1.107-.9,2.136,2.136,0,0,1-.4-1.237h1.613a1.171,1.171,0,0,0,.444.906,1.727,1.727,0,0,0,1.087.318,1.68,1.68,0,0,0,1-.25A.772.772,0,0,0,25.04-2.01Zm4.519-1.757a4.361,4.361,0,0,1,.431-1.958,3.145,3.145,0,0,1,1.21-1.34,3.409,3.409,0,0,1,1.791-.468,3.231,3.231,0,0,1,2.43.964,3.791,3.791,0,0,1,1.008,2.557l.007.39a4.4,4.4,0,0,1-.42,1.955,3.108,3.108,0,0,1-1.2,1.333A3.434,3.434,0,0,1,33,.137,3.209,3.209,0,0,1,30.5-.906a3.993,3.993,0,0,1-.94-2.779Zm1.661.144a2.98,2.98,0,0,0,.472,1.788A1.533,1.533,0,0,0,33-1.189a1.517,1.517,0,0,0,1.309-.656,3.292,3.292,0,0,0,.468-1.921A2.942,2.942,0,0,0,34.3-5.544,1.539,1.539,0,0,0,32.99-6.2a1.525,1.525,0,0,0-1.292.646A3.23,3.23,0,0,0,31.22-3.623ZM42.629-1.189a1.5,1.5,0,0,0,1.032-.362,1.238,1.238,0,0,0,.438-.9h1.565a2.44,2.44,0,0,1-.431,1.289,2.825,2.825,0,0,1-1.094.947,3.259,3.259,0,0,1-1.49.349,3.154,3.154,0,0,1-2.461-1,3.986,3.986,0,0,1-.909-2.775v-.171a3.919,3.919,0,0,1,.9-2.7,3.125,3.125,0,0,1,2.461-1.015,3.039,3.039,0,0,1,2.15.769,2.755,2.755,0,0,1,.872,2.02H44.1a1.521,1.521,0,0,0-.434-1.046,1.4,1.4,0,0,0-1.036-.41,1.462,1.462,0,0,0-1.244.584,2.982,2.982,0,0,0-.444,1.774v.267a3.032,3.032,0,0,0,.434,1.794A1.461,1.461,0,0,0,42.629-1.189ZM50.436,0H48.774V-7.4h1.661ZM48.672-9.317a.882.882,0,0,1,.243-.636.917.917,0,0,1,.694-.253.928.928,0,0,1,.7.253.875.875,0,0,1,.246.636.855.855,0,0,1-.246.625.935.935,0,0,1-.7.25.924.924,0,0,1-.694-.25A.861.861,0,0,1,48.672-9.317ZM58.413,0a2.564,2.564,0,0,1-.191-.69A2.586,2.586,0,0,1,56.28.137,2.61,2.61,0,0,1,54.462-.5a2.034,2.034,0,0,1-.7-1.572,2.1,2.1,0,0,1,.878-1.815,4.257,4.257,0,0,1,2.512-.632h1.019V-5a1.3,1.3,0,0,0-.321-.919,1.274,1.274,0,0,0-.978-.345,1.463,1.463,0,0,0-.93.284.878.878,0,0,0-.362.721H53.915a1.844,1.844,0,0,1,.4-1.138,2.687,2.687,0,0,1,1.1-.831,3.854,3.854,0,0,1,1.548-.3,3.1,3.1,0,0,1,2.071.653,2.328,2.328,0,0,1,.793,1.835v3.336a3.781,3.781,0,0,0,.28,1.593V0ZM56.588-1.2a1.89,1.89,0,0,0,.926-.239,1.6,1.6,0,0,0,.653-.643V-3.473h-.9a2.449,2.449,0,0,0-1.388.321,1.041,1.041,0,0,0-.465.909.971.971,0,0,0,.318.762A1.231,1.231,0,0,0,56.588-1.2Zm8.812-8v1.8h1.306v1.23H65.4v4.129a.909.909,0,0,0,.167.612.777.777,0,0,0,.6.188,2.559,2.559,0,0,0,.581-.068V-.021a4.091,4.091,0,0,1-1.094.157q-1.914,0-1.914-2.112v-4.19H62.521V-7.4h1.217v-1.8ZM71.49,0H69.829V-7.4H71.49ZM69.727-9.317a.882.882,0,0,1,.243-.636.917.917,0,0,1,.694-.253.928.928,0,0,1,.7.253.875.875,0,0,1,.246.636.855.855,0,0,1-.246.625.935.935,0,0,1-.7.25.924.924,0,0,1-.694-.25A.861.861,0,0,1,69.727-9.317Zm5.011,5.551a4.361,4.361,0,0,1,.431-1.958,3.145,3.145,0,0,1,1.21-1.34,3.409,3.409,0,0,1,1.791-.468,3.231,3.231,0,0,1,2.43.964,3.791,3.791,0,0,1,1.008,2.557l.007.39a4.4,4.4,0,0,1-.42,1.955,3.108,3.108,0,0,1-1.2,1.333,3.434,3.434,0,0,1-1.808.472A3.209,3.209,0,0,1,75.677-.906a3.993,3.993,0,0,1-.94-2.779Zm1.661.144a2.98,2.98,0,0,0,.472,1.788,1.533,1.533,0,0,0,1.313.646,1.517,1.517,0,0,0,1.309-.656,3.292,3.292,0,0,0,.468-1.921,2.942,2.942,0,0,0-.482-1.777A1.539,1.539,0,0,0,78.169-6.2a1.525,1.525,0,0,0-1.292.646A3.23,3.23,0,0,0,76.4-3.623ZM86.311-7.4l.048.854a2.659,2.659,0,0,1,2.153-.991q2.311,0,2.352,2.646V0H89.2V-4.792a1.523,1.523,0,0,0-.3-1.042,1.28,1.28,0,0,0-.995-.338,1.6,1.6,0,0,0-1.5.909V0H84.745V-7.4Zm12.92,3.63a4.361,4.361,0,0,1,.431-1.958,3.145,3.145,0,0,1,1.21-1.34,3.409,3.409,0,0,1,1.791-.468,3.231,3.231,0,0,1,2.43.964A3.791,3.791,0,0,1,106.1-4.013l.007.39a4.4,4.4,0,0,1-.42,1.955,3.108,3.108,0,0,1-1.2,1.333,3.434,3.434,0,0,1-1.808.472A3.209,3.209,0,0,1,100.17-.906a3.993,3.993,0,0,1-.94-2.779Zm1.661.144a2.98,2.98,0,0,0,.472,1.788,1.533,1.533,0,0,0,1.313.646,1.517,1.517,0,0,0,1.309-.656,3.292,3.292,0,0,0,.468-1.921,2.942,2.942,0,0,0-.482-1.777,1.539,1.539,0,0,0-1.309-.656,1.525,1.525,0,0,0-1.292.646A3.23,3.23,0,0,0,100.892-3.623ZM109.847,0V-6.166h-1.128V-7.4h1.128v-.677a2.54,2.54,0,0,1,.684-1.9,2.619,2.619,0,0,1,1.914-.67,3.839,3.839,0,0,1,.93.123l-.041,1.3a3.272,3.272,0,0,0-.636-.055,1.067,1.067,0,0,0-1.189,1.224V-7.4h1.5v1.23h-1.5V0Zm15.183-3.835H123.1V0h-1.729V-9.953h3.5a4.074,4.074,0,0,1,2.659.772,2.732,2.732,0,0,1,.937,2.235,2.8,2.8,0,0,1-.482,1.671,3.066,3.066,0,0,1-1.343,1.036l2.235,4.149V0h-1.853ZM123.1-5.223h1.777a1.977,1.977,0,0,0,1.367-.441,1.538,1.538,0,0,0,.492-1.207,1.637,1.637,0,0,0-.455-1.237,1.931,1.931,0,0,0-1.357-.451H123.1Zm13.077,4.5A2.576,2.576,0,0,1,134.1.137a2.3,2.3,0,0,1-1.822-.7A3,3,0,0,1,131.66-2.6V-7.4h1.661v4.771q0,1.408,1.169,1.408a1.642,1.642,0,0,0,1.634-.868V-7.4h1.661V0H136.22Zm9.194-1.285a.753.753,0,0,0-.366-.677,3.89,3.89,0,0,0-1.213-.41,6.237,6.237,0,0,1-1.415-.451,1.889,1.889,0,0,1-1.244-1.743,1.969,1.969,0,0,1,.807-1.6,3.189,3.189,0,0,1,2.051-.643,3.318,3.318,0,0,1,2.143.656,2.082,2.082,0,0,1,.817,1.7h-1.661a1.024,1.024,0,0,0-.355-.8,1.362,1.362,0,0,0-.943-.318,1.472,1.472,0,0,0-.892.253.8.8,0,0,0-.345.677.673.673,0,0,0,.321.595,4.418,4.418,0,0,0,1.3.427,6.148,6.148,0,0,1,1.535.513,2.173,2.173,0,0,1,.827.714,1.822,1.822,0,0,1,.27,1.012,1.927,1.927,0,0,1-.827,1.617,3.527,3.527,0,0,1-2.167.619,3.825,3.825,0,0,1-1.62-.328,2.666,2.666,0,0,1-1.107-.9,2.136,2.136,0,0,1-.4-1.237H142.5a1.17,1.17,0,0,0,.444.906,1.727,1.727,0,0,0,1.087.318,1.68,1.68,0,0,0,1-.25A.772.772,0,0,0,145.373-2.01Zm8.976,0a.753.753,0,0,0-.366-.677,3.89,3.89,0,0,0-1.213-.41,6.237,6.237,0,0,1-1.415-.451,1.889,1.889,0,0,1-1.244-1.743,1.969,1.969,0,0,1,.807-1.6,3.189,3.189,0,0,1,2.051-.643,3.318,3.318,0,0,1,2.143.656,2.082,2.082,0,0,1,.817,1.7h-1.661a1.024,1.024,0,0,0-.355-.8,1.362,1.362,0,0,0-.943-.318,1.472,1.472,0,0,0-.892.253.8.8,0,0,0-.345.677.673.673,0,0,0,.321.595,4.418,4.418,0,0,0,1.3.427,6.148,6.148,0,0,1,1.535.513,2.173,2.173,0,0,1,.827.714,1.822,1.822,0,0,1,.27,1.012,1.927,1.927,0,0,1-.827,1.617,3.527,3.527,0,0,1-2.167.619,3.825,3.825,0,0,1-1.62-.328,2.666,2.666,0,0,1-1.107-.9,2.136,2.136,0,0,1-.4-1.237h1.613a1.17,1.17,0,0,0,.444.906,1.727,1.727,0,0,0,1.087.318,1.68,1.68,0,0,0,1-.25A.772.772,0,0,0,154.349-2.01Zm6.6,2.01h-1.661V-7.4h1.661Zm-1.764-9.317a.882.882,0,0,1,.243-.636.917.917,0,0,1,.694-.253.928.928,0,0,1,.7.253.875.875,0,0,1,.246.636.855.855,0,0,1-.246.625.935.935,0,0,1-.7.25.924.924,0,0,1-.694-.25A.861.861,0,0,1,159.182-9.317ZM168.923,0a2.563,2.563,0,0,1-.191-.69,2.586,2.586,0,0,1-1.941.827A2.61,2.61,0,0,1,164.972-.5a2.034,2.034,0,0,1-.7-1.572,2.1,2.1,0,0,1,.878-1.815,4.257,4.257,0,0,1,2.512-.632h1.019V-5a1.3,1.3,0,0,0-.321-.919,1.274,1.274,0,0,0-.978-.345,1.463,1.463,0,0,0-.93.284.878.878,0,0,0-.362.721h-1.661a1.844,1.844,0,0,1,.4-1.138,2.687,2.687,0,0,1,1.1-.831,3.854,3.854,0,0,1,1.548-.3,3.1,3.1,0,0,1,2.071.653,2.328,2.328,0,0,1,.793,1.835v3.336a3.781,3.781,0,0,0,.28,1.593V0ZM167.1-1.2a1.89,1.89,0,0,0,.926-.239,1.6,1.6,0,0,0,.653-.643V-3.473h-.9a2.449,2.449,0,0,0-1.388.321,1.041,1.041,0,0,0-.465.909.971.971,0,0,0,.318.762A1.231,1.231,0,0,0,167.1-1.2Zm8.271-6.2.048.854a2.659,2.659,0,0,1,2.153-.991q2.311,0,2.352,2.646V0h-1.661V-4.792a1.523,1.523,0,0,0-.3-1.042,1.28,1.28,0,0,0-.995-.338,1.6,1.6,0,0,0-1.5.909V0H173.8V-7.4ZM194,0V-9.953h2.939a4.61,4.61,0,0,1,2.341.588A4.009,4.009,0,0,1,200.86-7.7a5.3,5.3,0,0,1,.561,2.475v.5a5.273,5.273,0,0,1-.564,2.488A3.96,3.96,0,0,1,199.25-.581,4.824,4.824,0,0,1,196.861,0Zm1.729-8.559v7.178h1.128a2.6,2.6,0,0,0,2.088-.851,3.707,3.707,0,0,0,.742-2.444v-.554a3.8,3.8,0,0,0-.7-2.475,2.5,2.5,0,0,0-2.044-.854ZM206.5,0h-1.661V-7.4H206.5Zm-1.764-9.317a.882.882,0,0,1,.243-.636.917.917,0,0,1,.694-.253.928.928,0,0,1,.7.253.875.875,0,0,1,.246.636.855.855,0,0,1-.246.625.935.935,0,0,1-.7.25.924.924,0,0,1-.694-.25A.861.861,0,0,1,204.736-9.317Zm5.031,5.564a4.326,4.326,0,0,1,.81-2.751,2.6,2.6,0,0,1,2.15-1.029,2.436,2.436,0,0,1,1.989.882l.075-.745h1.5V-.226a2.981,2.981,0,0,1-.906,2.3,3.45,3.45,0,0,1-2.444.841,3.939,3.939,0,0,1-1.589-.338,2.824,2.824,0,0,1-1.179-.885l.786-1a2.374,2.374,0,0,0,1.887.909,1.835,1.835,0,0,0,1.306-.448,1.716,1.716,0,0,0,.479-1.316v-.5a2.446,2.446,0,0,1-1.914.8A2.594,2.594,0,0,1,210.591-.9,4.466,4.466,0,0,1,209.768-3.753Zm1.654.144a2.978,2.978,0,0,0,.455,1.753,1.462,1.462,0,0,0,1.261.639,1.6,1.6,0,0,0,1.49-.861V-5.332a1.576,1.576,0,0,0-1.477-.841,1.467,1.467,0,0,0-1.275.649A3.334,3.334,0,0,0,211.422-3.609ZM221.512,0h-1.661V-7.4h1.661Zm-1.764-9.317a.882.882,0,0,1,.243-.636.917.917,0,0,1,.694-.253.928.928,0,0,1,.7.253.875.875,0,0,1,.246.636.855.855,0,0,1-.246.625.935.935,0,0,1-.7.25.924.924,0,0,1-.694-.25A.861.861,0,0,1,219.748-9.317Zm7.4.123v1.8h1.306v1.23h-1.306v4.129a.909.909,0,0,0,.167.612.777.777,0,0,0,.6.188,2.559,2.559,0,0,0,.581-.068V-.021A4.091,4.091,0,0,1,227.4.137q-1.914,0-1.914-2.112v-4.19h-1.217V-7.4h1.217v-1.8ZM235.895,0a2.563,2.563,0,0,1-.191-.69,2.586,2.586,0,0,1-1.941.827A2.61,2.61,0,0,1,231.943-.5a2.034,2.034,0,0,1-.7-1.572,2.1,2.1,0,0,1,.878-1.815,4.257,4.257,0,0,1,2.512-.632h1.019V-5a1.3,1.3,0,0,0-.321-.919,1.274,1.274,0,0,0-.978-.345,1.463,1.463,0,0,0-.93.284.878.878,0,0,0-.362.721H231.4a1.844,1.844,0,0,1,.4-1.138,2.687,2.687,0,0,1,1.1-.831,3.854,3.854,0,0,1,1.548-.3,3.1,3.1,0,0,1,2.071.653,2.328,2.328,0,0,1,.793,1.835v3.336a3.781,3.781,0,0,0,.28,1.593V0Zm-1.825-1.2A1.89,1.89,0,0,0,235-1.436a1.6,1.6,0,0,0,.653-.643V-3.473h-.9a2.449,2.449,0,0,0-1.388.321,1.041,1.041,0,0,0-.465.909.971.971,0,0,0,.318.762A1.231,1.231,0,0,0,234.069-1.2Zm8.5,1.2h-1.661V-10.5h1.661Zm19.763-2.317h-3.855L257.667,0h-1.8l3.76-9.953h1.552L264.947,0h-1.8Zm-3.37-1.395h2.885L260.4-7.841Zm8.415-.041a4.326,4.326,0,0,1,.81-2.751,2.6,2.6,0,0,1,2.15-1.029,2.436,2.436,0,0,1,1.989.882L272.4-7.4h1.5V-.226a2.98,2.98,0,0,1-.906,2.3,3.45,3.45,0,0,1-2.444.841,3.939,3.939,0,0,1-1.589-.338,2.824,2.824,0,0,1-1.179-.885l.786-1a2.374,2.374,0,0,0,1.887.909,1.835,1.835,0,0,0,1.306-.448,1.716,1.716,0,0,0,.479-1.316v-.5a2.446,2.446,0,0,1-1.914.8A2.594,2.594,0,0,1,268.2-.9,4.466,4.466,0,0,1,267.374-3.753Zm1.654.144a2.978,2.978,0,0,0,.455,1.753,1.462,1.462,0,0,0,1.261.639,1.6,1.6,0,0,0,1.49-.861V-5.332a1.576,1.576,0,0,0-1.477-.841,1.467,1.467,0,0,0-1.275.649A3.334,3.334,0,0,0,269.028-3.609ZM280.608.137a3.437,3.437,0,0,1-2.56-.995,3.608,3.608,0,0,1-.981-2.649v-.205a4.438,4.438,0,0,1,.427-1.979,3.252,3.252,0,0,1,1.2-1.357,3.172,3.172,0,0,1,1.723-.485,2.9,2.9,0,0,1,2.334.964,4.076,4.076,0,0,1,.824,2.728v.67h-4.833a2.221,2.221,0,0,0,.612,1.449,1.837,1.837,0,0,0,1.35.533,2.249,2.249,0,0,0,1.859-.923l.9.854a2.99,2.99,0,0,1-1.186,1.029A3.713,3.713,0,0,1,280.608.137Zm-.2-6.337a1.4,1.4,0,0,0-1.1.479,2.48,2.48,0,0,0-.537,1.333h3.165v-.123a2.019,2.019,0,0,0-.444-1.261A1.388,1.388,0,0,0,280.41-6.2Zm7.745-1.2.048.854a2.659,2.659,0,0,1,2.153-.991q2.311,0,2.352,2.646V0h-1.661V-4.792a1.523,1.523,0,0,0-.3-1.042,1.28,1.28,0,0,0-.995-.338,1.6,1.6,0,0,0-1.5.909V0H286.59V-7.4Zm11.033,6.207a1.5,1.5,0,0,0,1.032-.362,1.238,1.238,0,0,0,.438-.9h1.565a2.44,2.44,0,0,1-.431,1.289,2.825,2.825,0,0,1-1.094.947,3.259,3.259,0,0,1-1.49.349,3.154,3.154,0,0,1-2.461-1,3.986,3.986,0,0,1-.909-2.775v-.171a3.919,3.919,0,0,1,.9-2.7A3.125,3.125,0,0,1,299.2-7.533a3.039,3.039,0,0,1,2.15.769,2.755,2.755,0,0,1,.872,2.02h-1.565a1.521,1.521,0,0,0-.434-1.046,1.4,1.4,0,0,0-1.036-.41,1.462,1.462,0,0,0-1.244.584,2.982,2.982,0,0,0-.444,1.774v.267a3.032,3.032,0,0,0,.434,1.794A1.461,1.461,0,0,0,299.188-1.189ZM307,0h-1.661V-7.4H307Zm-1.764-9.317a.882.882,0,0,1,.243-.636.917.917,0,0,1,.694-.253.928.928,0,0,1,.7.253.875.875,0,0,1,.246.636.855.855,0,0,1-.246.625.935.935,0,0,1-.7.25.924.924,0,0,1-.694-.25A.861.861,0,0,1,305.231-9.317ZM313.811.137a3.437,3.437,0,0,1-2.56-.995,3.608,3.608,0,0,1-.981-2.649v-.205a4.438,4.438,0,0,1,.427-1.979,3.252,3.252,0,0,1,1.2-1.357,3.172,3.172,0,0,1,1.723-.485,2.9,2.9,0,0,1,2.334.964,4.076,4.076,0,0,1,.824,2.728v.67h-4.833a2.221,2.221,0,0,0,.612,1.449,1.837,1.837,0,0,0,1.35.533,2.249,2.249,0,0,0,1.859-.923l.9.854a2.99,2.99,0,0,1-1.186,1.029A3.713,3.713,0,0,1,313.811.137Zm-.2-6.337a1.4,1.4,0,0,0-1.1.479,2.48,2.48,0,0,0-.537,1.333h3.165v-.123a2.019,2.019,0,0,0-.444-1.261A1.388,1.388,0,0,0,313.612-6.2Zm10.35,4.19a.753.753,0,0,0-.366-.677,3.89,3.89,0,0,0-1.213-.41,6.238,6.238,0,0,1-1.415-.451,1.888,1.888,0,0,1-1.244-1.743,1.969,1.969,0,0,1,.807-1.6,3.189,3.189,0,0,1,2.051-.643,3.318,3.318,0,0,1,2.143.656,2.082,2.082,0,0,1,.817,1.7H323.88a1.024,1.024,0,0,0-.355-.8,1.362,1.362,0,0,0-.943-.318,1.472,1.472,0,0,0-.892.253.8.8,0,0,0-.345.677.673.673,0,0,0,.321.595,4.418,4.418,0,0,0,1.3.427,6.148,6.148,0,0,1,1.535.513,2.173,2.173,0,0,1,.827.714A1.822,1.822,0,0,1,325.6-2.1a1.927,1.927,0,0,1-.827,1.617A3.527,3.527,0,0,1,322.6.137a3.825,3.825,0,0,1-1.62-.328,2.666,2.666,0,0,1-1.107-.9,2.136,2.136,0,0,1-.4-1.237h1.613a1.171,1.171,0,0,0,.444.906,1.727,1.727,0,0,0,1.087.318,1.68,1.68,0,0,0,1-.25A.772.772,0,0,0,323.962-2.01Z" transform="translate(661 2564)" fill="#ffffff" display="none"></path>
                                    </g>
                                </svg>