<svg width="58" height="24" viewBox="0 0 58 24" fill="none" xmlns="http://www.w3.org/2000/svg">
<g clip-path="url(#clip0_2172_3313)">
<path d="M3 12H21M21 12L15.6667 19M21 12L15.6667 5" stroke="white" stroke-width="2" stroke-linecap="round" stroke-linejoin="round"/>
</g>
<g clip-path="url(#clip1_2172_3313)">
<path d="M46 2.16094C49.2063 2.16094 49.5859 2.175 50.8469 2.23125C52.0188 2.28281 52.6516 2.47969 53.0734 2.64375C53.6313 2.85938 54.0344 3.12188 54.4516 3.53906C54.8734 3.96094 55.1313 4.35938 55.3469 4.91719C55.5109 5.33906 55.7078 5.97656 55.7594 7.14375C55.8156 8.40937 55.8297 8.78906 55.8297 11.9906C55.8297 15.1969 55.8156 15.5766 55.7594 16.8375C55.7078 18.0094 55.5109 18.6422 55.3469 19.0641C55.1313 19.6219 54.8687 20.025 54.4516 20.4422C54.0297 20.8641 53.6313 21.1219 53.0734 21.3375C52.6516 21.5016 52.0141 21.6984 50.8469 21.75C49.5813 21.8062 49.2016 21.8203 46 21.8203C42.7938 21.8203 42.4141 21.8062 41.1531 21.75C39.9813 21.6984 39.3484 21.5016 38.9266 21.3375C38.3688 21.1219 37.9656 20.8594 37.5484 20.4422C37.1266 20.0203 36.8688 19.6219 36.6531 19.0641C36.4891 18.6422 36.2922 18.0047 36.2406 16.8375C36.1844 15.5719 36.1703 15.1922 36.1703 11.9906C36.1703 8.78438 36.1844 8.40469 36.2406 7.14375C36.2922 5.97187 36.4891 5.33906 36.6531 4.91719C36.8688 4.35938 37.1313 3.95625 37.5484 3.53906C37.9703 3.11719 38.3688 2.85938 38.9266 2.64375C39.3484 2.47969 39.9859 2.28281 41.1531 2.23125C42.4141 2.175 42.7938 2.16094 46 2.16094ZM46 0C42.7422 0 42.3344 0.0140625 41.0547 0.0703125C39.7797 0.126563 38.9031 0.332812 38.1438 0.628125C37.3516 0.9375 36.6813 1.34531 36.0156 2.01562C35.3453 2.68125 34.9375 3.35156 34.6281 4.13906C34.3328 4.90313 34.1266 5.775 34.0703 7.05C34.0141 8.33437 34 8.74219 34 12C34 15.2578 34.0141 15.6656 34.0703 16.9453C34.1266 18.2203 34.3328 19.0969 34.6281 19.8563C34.9375 20.6484 35.3453 21.3188 36.0156 21.9844C36.6813 22.65 37.3516 23.0625 38.1391 23.3672C38.9031 23.6625 39.775 23.8687 41.05 23.925C42.3297 23.9812 42.7375 23.9953 45.9953 23.9953C49.2531 23.9953 49.6609 23.9812 50.9406 23.925C52.2156 23.8687 53.0922 23.6625 53.8516 23.3672C54.6391 23.0625 55.3094 22.65 55.975 21.9844C56.6406 21.3188 57.0531 20.6484 57.3578 19.8609C57.6531 19.0969 57.8594 18.225 57.9156 16.95C57.9719 15.6703 57.9859 15.2625 57.9859 12.0047C57.9859 8.74688 57.9719 8.33906 57.9156 7.05938C57.8594 5.78438 57.6531 4.90781 57.3578 4.14844C57.0625 3.35156 56.6547 2.68125 55.9844 2.01562C55.3188 1.35 54.6484 0.9375 53.8609 0.632812C53.0969 0.3375 52.225 0.13125 50.95 0.075C49.6656 0.0140625 49.2578 0 46 0Z" fill="white"/>
<path d="M46 5.83594C42.5969 5.83594 39.8359 8.59688 39.8359 12C39.8359 15.4031 42.5969 18.1641 46 18.1641C49.4031 18.1641 52.1641 15.4031 52.1641 12C52.1641 8.59688 49.4031 5.83594 46 5.83594ZM46 15.9984C43.7922 15.9984 42.0016 14.2078 42.0016 12C42.0016 9.79219 43.7922 8.00156 46 8.00156C48.2078 8.00156 49.9984 9.79219 49.9984 12C49.9984 14.2078 48.2078 15.9984 46 15.9984Z" fill="white"/>
<path d="M53.8469 5.59141C53.8469 6.38829 53.2 7.03047 52.4078 7.03047C51.6109 7.03047 50.9688 6.3836 50.9688 5.59141C50.9688 4.79453 51.6156 4.15234 52.4078 4.15234C53.2 4.15234 53.8469 4.79922 53.8469 5.59141Z" fill="white"/>
</g>
<defs>
<clipPath id="clip0_2172_3313">
<rect width="24" height="24" fill="white"/>
</clipPath>
<clipPath id="clip1_2172_3313">
<rect width="24" height="24" fill="white" transform="translate(34)"/>
</clipPath>
</defs>
</svg>
