<svg width="578" height="809" viewBox="0 0 578 809" fill="none" xmlns="http://www.w3.org/2000/svg">
<path d="M6.75 70.1592C6.75 32.88 36.9708 2.65918 74.25 2.65918H119.25C156.529 2.65918 186.75 32.88 186.75 70.1592V302.659H74.25C36.9708 302.659 6.75 272.438 6.75 235.159V70.1592Z" fill="white" stroke="white" stroke-width="4"/>
<path d="M198.75 70.1592C198.75 32.88 228.971 2.65918 266.25 2.65918H311.25C348.529 2.65918 378.75 32.88 378.75 70.1592V302.659H198.75V70.1592Z" stroke="white" stroke-width="4"/>
<path d="M390.75 70.1592C390.75 32.88 420.971 2.65918 458.25 2.65918H503.25C540.529 2.65918 570.75 32.88 570.75 70.1592V235.159C570.75 272.438 540.529 302.659 503.25 302.659H390.75V70.1592Z" stroke="white" stroke-width="4"/>
<path d="M6.75 382.159C6.75 344.88 36.9708 314.659 74.25 314.659H186.75V614.659H74.25C36.9708 614.659 6.75 584.438 6.75 547.159V382.159Z" fill="white" stroke="white" stroke-width="4"/>
<rect x="198.75" y="314.659" width="180" height="300" stroke="white" stroke-width="4"/>
<path d="M390.75 314.659H503.25C540.529 314.659 570.75 344.88 570.75 382.159V547.159C570.75 584.438 540.529 614.659 503.25 614.659H390.75V314.659Z" stroke="white" stroke-width="4"/>
<path d="M6.75 694.159C6.75 656.88 36.9708 626.659 74.25 626.659H186.75V739.159C186.75 776.438 156.529 806.659 119.25 806.659H74.25C36.9708 806.659 6.75 776.438 6.75 739.159V694.159Z" fill="white" stroke="white" stroke-width="4"/>
<path d="M198.75 626.659H378.75V739.159C378.75 776.438 348.529 806.659 311.25 806.659H266.25C228.971 806.659 198.75 776.438 198.75 739.159V626.659Z" fill="white" stroke="white" stroke-width="4"/>
<path d="M390.75 626.659H503.25C540.529 626.659 570.75 656.88 570.75 694.159V739.159C570.75 776.438 540.529 806.659 503.25 806.659H458.25C420.971 806.659 390.75 776.438 390.75 739.159V626.659Z" fill="white" stroke="white" stroke-width="4"/>
</svg>
