<svg width="94" height="26" viewBox="0 0 94 26" fill="none" xmlns="http://www.w3.org/2000/svg">
<path d="M0 25.25V1.25H2.85087V22.4333H13.5497V25.25H0Z" fill="white"/>
<path d="M15.9386 25.25V1.25H30.5133V4.06667H18.7894V11.5833H28.5913V14.4H18.7894V22.4333H30.5133V25.25H15.9386Z" fill="white"/>
<path d="M42.4108 25.75C40.8305 25.75 39.389 25.4611 38.0864 24.8833C36.7837 24.3056 35.6626 23.4778 34.723 22.4C33.7834 21.3111 33.0573 20 32.5448 18.4667C32.043 16.9222 31.792 15.1833 31.792 13.25C31.792 10.6944 32.2298 8.48333 33.1054 6.61667C33.9809 4.75 35.2142 3.31111 36.8051 2.3C38.396 1.27778 40.2646 0.766665 42.4108 0.766665C44.9947 0.766665 47.0768 1.39444 48.657 2.65C50.2373 3.89444 51.3264 5.6 51.9243 7.76667L49.0414 8.38333C48.5609 6.92778 47.7708 5.76667 46.671 4.9C45.5713 4.03333 44.1992 3.6 42.5549 3.6C40.8358 3.58889 39.4051 3.98889 38.2626 4.8C37.1308 5.6 36.2766 6.72778 35.7 8.18333C35.1234 9.63889 34.8298 11.3278 34.8191 13.25C34.8084 15.1611 35.0914 16.8389 35.668 18.2833C36.2445 19.7278 37.1041 20.8611 38.2466 21.6833C39.3997 22.4944 40.8358 22.9056 42.5549 22.9167C44.0391 22.9278 45.2883 22.6333 46.3027 22.0333C47.317 21.4333 48.1018 20.5667 48.657 19.4333C49.2123 18.3 49.5486 16.9389 49.6661 15.35H44.7651V12.9H52.6771C52.7091 13.1222 52.7251 13.3889 52.7251 13.7C52.7358 14 52.7412 14.2056 52.7412 14.3167C52.7412 16.5056 52.3461 18.4667 51.556 20.2C50.7765 21.9222 49.618 23.2778 48.0805 24.2667C46.5536 25.2556 44.6637 25.75 42.4108 25.75Z" fill="white"/>
<path d="M55.6198 25.25V1.25H58.4707V12.5167L68.5609 1.25H72.1485L61.6739 12.9L72.9653 25.25H69.2816L58.4707 13.5167V25.25H55.6198Z" fill="white"/>
<path d="M83.2372 25.75C80.9415 25.75 78.9929 25.2222 77.3913 24.1667C75.7896 23.1111 74.5671 21.6444 73.7236 19.7667C72.8907 17.8889 72.4743 15.7167 72.4743 13.25C72.4743 10.7833 72.8907 8.61111 73.7236 6.73333C74.5671 4.85555 75.7896 3.38889 77.3913 2.33333C78.9929 1.27778 80.9415 0.75 83.2372 0.75C85.5435 0.75 87.4974 1.27778 89.0991 2.33333C90.7007 3.38889 91.9179 4.85555 92.7507 6.73333C93.5836 8.61111 94 10.7833 94 13.25C94 15.7167 93.5836 17.8889 92.7507 19.7667C91.9179 21.6444 90.7007 23.1111 89.0991 24.1667C87.4974 25.2222 85.5435 25.75 83.2372 25.75ZM83.2372 22.9167C84.9562 22.9278 86.387 22.5278 87.5295 21.7167C88.6826 20.8944 89.5422 19.7556 90.1081 18.3C90.6847 16.8444 90.9729 15.1611 90.9729 13.25C90.9729 11.3278 90.6847 9.64444 90.1081 8.2C89.5422 6.75556 88.6826 5.62778 87.5295 4.81667C86.387 4.00556 84.9562 3.59444 83.2372 3.58333C81.5181 3.57222 80.0873 3.97222 78.9448 4.78333C77.813 5.59444 76.9588 6.72778 76.3822 8.18333C75.8057 9.63889 75.512 11.3278 75.5014 13.25C75.4907 15.1611 75.7736 16.8389 76.3502 18.2833C76.9268 19.7278 77.7863 20.8611 78.9288 21.6833C80.082 22.4944 81.5181 22.9056 83.2372 22.9167Z" fill="white"/>
</svg>
