<svg width="116" height="50" viewBox="0 0 116 50" fill="none" xmlns="http://www.w3.org/2000/svg">
<path fill-rule="evenodd" clip-rule="evenodd" d="M51.9855 33.6207C49.7813 33.6207 47.8577 35.0293 46.8008 36.97C42.5724 44.7338 34.3587 50 24.9189 50C11.1567 50 0.000350952 38.8072 0.000350952 25C0.000350952 11.1928 11.1567 0 24.9189 0C34.3587 0 42.5724 5.26617 46.8008 13.03C47.8577 14.9707 49.7813 16.3793 51.9855 16.3793C54.1898 16.3793 56.1133 14.9707 57.1703 13.03C61.3986 5.26617 69.6125 0 79.0522 0H91.0818C104.844 0 116 11.1928 116 25C116 38.8072 104.844 50 91.0818 50H79.0522C69.6125 50 61.3986 44.7338 57.1703 36.97C56.1133 35.0293 54.1898 33.6207 51.9855 33.6207Z" fill="#44444A" fill-opacity="0.97"/>
</svg>
